<?xml version="1.0" encoding="utf-8"?>
<!-- Generator: Adobe Illustrator 26.0.3, SVG Export Plug-In . SVG Version: 6.00 Build 0)  -->
<svg version="1.1" id="Ebene_1" xmlns="http://www.w3.org/2000/svg" xmlns:xlink="http://www.w3.org/1999/xlink" x="0px" y="0px"
	 viewBox="0 0 42 42" style="enable-background:new 0 0 42 42;" xml:space="preserve">
<style type="text/css">
	.st0{fill:#3ED8C3;}
	.st1{fill:#FFFFFF;}
</style>
<path class="st0" d="M37.23,2C38.76,2,40,3.24,40,4.77l0,0v32.46c0,1.53-1.24,2.77-2.77,2.77l0,0H4.77C3.24,40,2,38.76,2,37.23l0,0
	V4.77C2,3.24,3.24,2,4.77,2l0,0H37.23 M37.23,0H4.77C2.14,0.01,0.01,2.14,0,4.77v32.46c0.01,2.63,2.14,4.76,4.77,4.77h32.46
	c2.63-0.01,4.76-2.14,4.77-4.77V4.77C41.99,2.14,39.86,0.01,37.23,0z"/>
<g>
	<path class="st1" d="M21,31.71c-0.9,0-8.82-0.02-11.03-0.61c-1.53-0.42-2.74-1.64-3.15-3.17c-0.42-2.34-0.62-4.64-0.6-6.93
		c-0.01-2.28,0.18-4.59,0.59-6.85c0.43-1.61,1.64-2.82,3.16-3.24c2.22-0.6,10.14-0.62,11.04-0.62s8.82,0.02,11.03,0.61
		c1.53,0.42,2.73,1.63,3.14,3.15l0.02,0.09c0.4,2.26,0.6,4.56,0.59,6.86c0.01,2.28-0.18,4.59-0.59,6.84
		c-0.43,1.61-1.63,2.83-3.16,3.25C29.82,31.69,21.9,31.71,21,31.71z M21,12.29c-2.36,0-8.85,0.1-10.51,0.55
		c-0.84,0.23-1.51,0.9-1.74,1.75c-0.36,2.05-0.55,4.24-0.53,6.41c-0.01,2.18,0.17,4.36,0.55,6.5c0.21,0.77,0.87,1.44,1.72,1.67
		c1.65,0.45,8.14,0.54,10.5,0.54c2.36,0,8.85-0.1,10.51-0.55c0.84-0.23,1.51-0.9,1.73-1.75c0.36-2.05,0.55-4.23,0.54-6.41
		c0.01-2.17-0.17-4.34-0.55-6.46c-0.24-0.83-0.9-1.48-1.73-1.71C29.85,12.39,23.36,12.29,21,12.29z"/>
</g>
<g>
	<path class="st1" d="M17.18,26.81V15.18L27.41,21L17.18,26.81z M19.18,18.62v4.75L23.37,21L19.18,18.62z"/>
</g>
</svg>
